# xmcd
#
# Track frame offsets:
#	92189
#	107342
#	128495
#	149046
#	173424
#	202827
#	229005
#	246558
#	267561
#	286089
#
# Disc length: 4146 seconds
#
# Revision: 3
# Processed by: cddbd v1.5.2PL0 Copyright (c) Steve Scherf et al.
# Submitted via: EZCDAudioConverter 2.1.7.1
#
DISCID=950b650a
DTITLE=V/A - Real World Notes V01
DYEAR=1900
DGENRE=
TTITLE0=U Srinivas - Sangamam
TTITLE1=Remmy Ongala - Penzi Lauwa
TTITLE2=Vika and Linda - We've Started A Fire
TTITLE3=Paban Das Baul and Sam Mills - Tomar Dil Ki Doya Ki Hoyna
TTITLE4=Master Musicians Of Jajouka featuring Bachir Attar - Bughudia
TTITLE5=Abdel Ali Slimani - Mraya
TTITLE6=Abdelli - Adarghal
TTITLE7=Hukwe Zawose - Sisitizo La Amami
TTITLE8=Papa Wemba - Image [Remix]
TTITLE9=Peter Gabriel - Lovetown
EXTD=
EXTT0=
EXTT1=
EXTT2=
EXTT3=
EXTT4=
EXTT5=
EXTT6=
EXTT7=
EXTT8=
EXTT9=
PLAYORDER=
